<svg width="233" height="214" viewBox="0 0 233 214" fill="none" xmlns="http://www.w3.org/2000/svg">
<circle cx="4.5" cy="107.5" r="4.5" fill="#FCB317"/>
<circle cx="196.5" cy="116.5" r="4.5" fill="#FCB317"/>
<circle cx="184.5" cy="209.5" r="4.5" fill="#FCB317" fill-opacity="0.73"/>
<circle cx="194.5" cy="51.5" r="2.5" fill="#FCB317"/>
<path d="M18 75L19.7961 80.5279H25.6085L20.9062 83.9443L22.7023 89.4721L18 86.0557L13.2977 89.4721L15.0938 83.9443L10.3915 80.5279H16.2039L18 75Z" fill="#FCB317"/>
<path d="M207.5 0L208.959 4.49139H213.682L209.861 7.26722L211.321 11.7586L207.5 8.98278L203.679 11.7586L205.139 7.26722L201.318 4.49139H206.041L207.5 0Z" fill="#FCB317"/>
<path d="M229.5 94L230.286 96.4184H232.829L230.771 97.9131L231.557 100.332L229.5 98.8369L227.443 100.332L228.229 97.9131L226.171 96.4184H228.714L229.5 94Z" fill="#F4600C" fill-opacity="0.62"/>
<path d="M212 82V76M215 79L209 79.018" stroke="#FCB317" stroke-linecap="round"/>
<path d="M180 189V183M183 186L177 186.018" stroke="#FCB317" stroke-linecap="round"/>
<path d="M214 119V115M216 117L212 117.012" stroke="#FCB317" stroke-linecap="round"/>
</svg>
