<svg width="43" height="61" viewBox="0 0 43 61" fill="none" xmlns="http://www.w3.org/2000/svg">
<circle cx="21.5" cy="39.5" r="21.5" fill="white"/>
<path d="M33.7249 2.78631C32.9719 3.15021 32.1751 3.38996 31.3598 3.49797C32.2166 2.93998 32.861 2.05351 33.172 1.00483C32.3619 1.53164 31.4772 1.90128 30.5556 2.0979C30.1675 1.64557 29.7008 1.28573 29.1837 1.04025C28.6667 0.794766 28.1102 0.668774 27.5481 0.66993C25.2721 0.66993 23.4302 2.68863 23.4302 5.17712C23.4286 5.52326 23.4642 5.86837 23.5364 6.20508C21.9044 6.11998 20.3062 5.65695 18.8443 4.84559C17.3824 4.03424 16.0888 2.89243 15.0464 1.49322C14.6807 2.17889 14.4873 2.96122 14.4864 3.75845C14.4864 5.32131 15.2195 6.70277 16.3266 7.51211C15.6707 7.4948 15.0282 7.30173 14.4537 6.9493V7.00511C14.4537 9.19126 15.8757 11.01 17.7577 11.4239C17.4038 11.5289 17.0391 11.582 16.6729 11.5821C16.413 11.5826 16.1537 11.5545 15.8987 11.4983C16.4219 13.2891 17.9447 14.5915 19.7485 14.6287C18.2828 15.885 16.4832 16.564 14.6327 16.5591C14.3043 16.5585 13.9761 16.5368 13.6499 16.4939C15.5324 17.8308 17.7207 18.538 19.9543 18.5312C27.5393 18.5312 31.6831 11.6611 31.6831 5.70273C31.6831 5.50737 31.6785 5.31201 31.6701 5.1213C32.4744 4.48502 33.1702 3.69431 33.7249 2.78631Z" fill="#1A1833" fill-opacity="0.64"/>
</svg>
