<svg width="45" height="48" viewBox="0 0 45 48" fill="none" xmlns="http://www.w3.org/2000/svg">
<path d="M42.9 24.1089C42.9 26.9757 42.3807 29.8145 41.3719 32.4631C40.363 35.1117 38.8843 37.5183 37.0202 39.5454C35.156 41.5726 32.943 43.1806 30.5074 44.2777C28.0718 45.3748 25.4613 45.9394 22.825 45.9394C20.1887 45.9394 17.5782 45.3748 15.1426 44.2777C12.707 43.1806 10.494 41.5726 8.62983 39.5454C6.76569 37.5183 5.28698 35.1117 4.27812 32.4631C3.26925 29.8145 2.75 26.9757 2.75 24.1089C2.75 18.3191 4.86504 12.7664 8.62983 8.67234C12.3946 4.57832 17.5008 2.27832 22.825 2.27832C28.1492 2.27832 33.2554 4.57832 37.0202 8.67234C40.785 12.7664 42.9 18.3191 42.9 24.1089Z" stroke="white" stroke-width="4" stroke-linecap="round" stroke-linejoin="round"/>
<path d="M31.5464 23.3137C31.677 23.3924 31.7858 23.5077 31.8616 23.6476C31.9374 23.7875 31.9774 23.9469 31.9774 24.1093C31.9774 24.2716 31.9374 24.4311 31.8616 24.571C31.7858 24.7109 31.677 24.8262 31.5464 24.9049L19.0486 32.4558C18.9212 32.5327 18.7776 32.5721 18.632 32.57C18.4863 32.568 18.3437 32.5247 18.2182 32.4443C18.0927 32.3639 17.9886 32.2493 17.9164 32.1118C17.8441 31.9743 17.8061 31.8186 17.8062 31.6602V16.5583C17.8062 15.8646 18.4909 15.428 19.0486 15.7651L31.5464 23.3137Z" stroke="white" stroke-width="4" stroke-linecap="round" stroke-linejoin="round"/>
</svg>
