<svg width="43" height="43" viewBox="0 0 43 43" fill="none" xmlns="http://www.w3.org/2000/svg">
<circle cx="21.5" cy="21.5" r="21.5" fill="white"/>
<path d="M26.7394 12.5207C27.9954 12.5244 29.1988 13.025 30.0869 13.9131C30.975 14.8012 31.4756 16.0046 31.4793 17.2606V26.7394C31.4756 27.9954 30.975 29.1988 30.0869 30.0869C29.1988 30.975 27.9954 31.4756 26.7394 31.4793H17.2606C16.0046 31.4756 14.8012 30.975 13.9131 30.0869C13.025 29.1988 12.5244 27.9954 12.5207 26.7394V17.2606C12.5244 16.0046 13.025 14.8012 13.9131 13.9131C14.8012 13.025 16.0046 12.5244 17.2606 12.5207H26.7394ZM26.7394 10.625H17.2606C13.6109 10.625 10.625 13.6109 10.625 17.2606V26.7394C10.625 30.3891 13.6109 33.375 17.2606 33.375H26.7394C30.3891 33.375 33.375 30.3891 33.375 26.7394V17.2606C33.375 13.6109 30.3891 10.625 26.7394 10.625Z" fill="#1A1833" fill-opacity="0.64"/>
<path d="M28.1613 17.2607C27.8801 17.2607 27.6052 17.1774 27.3713 17.0211C27.1375 16.8649 26.9553 16.6428 26.8477 16.383C26.74 16.1232 26.7119 15.8373 26.7667 15.5615C26.8216 15.2857 26.957 15.0323 27.1559 14.8335C27.3547 14.6346 27.6081 14.4992 27.8839 14.4443C28.1597 14.3895 28.4456 14.4176 28.7054 14.5252C28.9652 14.6328 29.1873 14.8151 29.3435 15.0489C29.4998 15.2827 29.5832 15.5576 29.5832 15.8389C29.5836 16.0257 29.5471 16.2108 29.4757 16.3835C29.4044 16.5562 29.2997 16.7131 29.1676 16.8452C29.0355 16.9773 28.8786 17.082 28.7059 17.1533C28.5332 17.2246 28.3481 17.2611 28.1613 17.2607ZM22 18.2083C22.75 18.2083 23.4831 18.4307 24.1066 18.8474C24.7302 19.264 25.2162 19.8562 25.5032 20.5491C25.7902 21.242 25.8653 22.0044 25.719 22.7399C25.5727 23.4755 25.2115 24.1511 24.6812 24.6814C24.1509 25.2117 23.4753 25.5728 22.7398 25.7191C22.0042 25.8654 21.2418 25.7904 20.5489 25.5034C19.8561 25.2164 19.2639 24.7304 18.8472 24.1068C18.4306 23.4832 18.2082 22.7501 18.2082 22.0002C18.2092 20.9948 18.6091 20.031 19.32 19.3201C20.0308 18.6092 20.9947 18.2094 22 18.2083ZM22 16.3127C20.8751 16.3127 19.7755 16.6462 18.8402 17.2712C17.9049 17.8961 17.1759 18.7844 16.7454 19.8236C16.315 20.8629 16.2023 22.0065 16.4218 23.1097C16.6412 24.213 17.1829 25.2264 17.9783 26.0218C18.7737 26.8172 19.7872 27.3589 20.8904 27.5784C21.9937 27.7978 23.1373 27.6852 24.1765 27.2547C25.2158 26.8242 26.104 26.0953 26.729 25.16C27.3539 24.2247 27.6875 23.125 27.6875 22.0002C27.6875 20.4917 27.0883 19.0451 26.0217 17.9785C24.9551 16.9119 23.5084 16.3127 22 16.3127Z" fill="#1A1833" fill-opacity="0.64"/>
</svg>
