<svg width="43" height="62" viewBox="0 0 43 62" fill="none" xmlns="http://www.w3.org/2000/svg">
<circle cx="21.5" cy="40.5" r="21.5" fill="white"/>
<path fill-rule="evenodd" clip-rule="evenodd" d="M31.7372 10.6607C31.7372 5.14777 27.447 0.677734 22.156 0.677734C16.8649 0.677734 12.5747 5.14777 12.5747 10.6607C12.5747 15.6432 16.0779 19.7732 20.6589 20.5228V13.5472H18.2255V10.6607H20.6589V8.4613C20.6589 5.95977 22.0897 4.57687 24.2779 4.57687C25.3263 4.57687 26.423 4.77207 26.423 4.77207V7.22903H25.2143C24.0247 7.22903 23.6526 7.99825 23.6526 8.78886V10.6607H26.3097L25.8854 13.5472H23.653V20.5237C28.2341 19.7745 31.7372 15.6445 31.7372 10.6607Z" fill="#1A1833" fill-opacity="0.64"/>
</svg>
