<svg width="43" height="62" viewBox="0 0 43 62" fill="none" xmlns="http://www.w3.org/2000/svg">
<circle cx="21.5" cy="40.5" r="21.5" fill="white"/>
<path d="M25.7422 0.677734H9.74967C8.87581 0.677734 8.1123 1.32893 8.1123 2.22333V18.8231C8.1123 19.7223 8.87581 20.5237 9.74967 20.5237H25.7375C26.6161 20.5237 27.2748 19.717 27.2748 18.8231V2.22333C27.2799 1.32893 26.6161 0.677734 25.7422 0.677734ZM14.0522 17.2203H11.307V8.38045H14.0522V17.2203ZM12.7746 7.03642H12.7549C11.8764 7.03642 11.3075 6.35908 11.3075 5.5112C11.3075 4.64781 11.8913 3.98643 12.7896 3.98643C13.6878 3.98643 14.2375 4.64294 14.2571 5.5112C14.2567 6.35908 13.6878 7.03642 12.7746 7.03642ZM24.0852 17.2203H21.34V12.3869C21.34 11.2289 20.9405 10.4377 19.9473 10.4377C19.1885 10.4377 18.7393 10.9693 18.5396 11.4871C18.4647 11.6732 18.4446 11.9266 18.4446 12.1853V17.2203H15.6994V8.38045H18.4446V9.61063C18.8441 9.02146 19.4682 8.17357 20.9204 8.17357C22.7224 8.17357 24.0856 9.40376 24.0856 12.0559L24.0852 17.2203Z" fill="#1A1833" fill-opacity="0.64"/>
</svg>
