<svg width="19" height="22" viewBox="0 0 19 22" fill="none" xmlns="http://www.w3.org/2000/svg">
<path d="M13.309 9.7243V5.25896C13.309 4.27206 12.9485 3.32558 12.3068 2.62773C11.665 1.92989 10.7947 1.53784 9.88714 1.53784C8.9796 1.53784 8.10923 1.92989 7.4675 2.62773C6.82578 3.32558 6.46526 4.27206 6.46526 5.25896V9.7243M16.8276 7.74665L17.9801 19.6542C18.044 20.3141 17.5695 20.8877 16.959 20.8877H2.81526C2.67127 20.8878 2.52887 20.8551 2.39729 20.7915C2.26571 20.7279 2.1479 20.6349 2.05152 20.5186C1.95514 20.4023 1.88233 20.2652 1.83784 20.1163C1.79335 19.9674 1.77816 19.8099 1.79326 19.6542L2.94666 7.74665C2.97327 7.47234 3.09232 7.21845 3.28086 7.03394C3.46941 6.84943 3.7141 6.74736 3.96775 6.74741H15.8065C16.3321 6.74741 16.7729 7.17906 16.8276 7.74665ZM6.80745 9.7243C6.80745 9.82299 6.7714 9.91764 6.70722 9.98742C6.64305 10.0572 6.55601 10.0964 6.46526 10.0964C6.37451 10.0964 6.28747 10.0572 6.2233 9.98742C6.15912 9.91764 6.12307 9.82299 6.12307 9.7243C6.12307 9.62561 6.15912 9.53096 6.2233 9.46118C6.28747 9.39139 6.37451 9.35219 6.46526 9.35219C6.55601 9.35219 6.64305 9.39139 6.70722 9.46118C6.7714 9.53096 6.80745 9.62561 6.80745 9.7243ZM13.6512 9.7243C13.6512 9.82299 13.6151 9.91764 13.551 9.98742C13.4868 10.0572 13.3998 10.0964 13.309 10.0964C13.2183 10.0964 13.1312 10.0572 13.067 9.98742C13.0029 9.91764 12.9668 9.82299 12.9668 9.7243C12.9668 9.62561 13.0029 9.53096 13.067 9.46118C13.1312 9.39139 13.2183 9.35219 13.309 9.35219C13.3998 9.35219 13.4868 9.39139 13.551 9.46118C13.6151 9.53096 13.6512 9.62561 13.6512 9.7243Z" stroke="white" stroke-width="2" stroke-linecap="round" stroke-linejoin="round"/>
</svg>
